<?xml version="1.0" standalone="no"?>
<!DOCTYPE svg PUBLIC "-//W3C//DTD SVG 20010904//EN"
 "http://www.w3.org/TR/2001/REC-SVG-20010904/DTD/svg10.dtd">
<svg version="1.0" xmlns="http://www.w3.org/2000/svg"
 width="272.000000pt" height="272.000000pt" viewBox="0 0 272.000000 272.000000"
 preserveAspectRatio="xMidYMid meet">
<metadata>
Created by potrace 1.14, written by Peter Selinger 2001-2017
</metadata>
<g transform="translate(0.000000,272.000000) scale(0.100000,-0.100000)"
fill="#000000" stroke="none">
<path d="M340 1415 l0 -985 985 0 985 0 0 985 0 985 -985 0 -985 0 0 -985z
m1920 5 l0 -930 -935 0 -935 0 0 930 0 930 935 0 935 0 0 -930z"/>
<path d="M943 2050 c-48 -21 -47 -19 -33 -54 l9 -26 53 21 c29 11 55 23 57 25
8 8 -19 54 -31 53 -7 0 -32 -9 -55 -19z"/>
<path d="M980 1970 c-33 -13 -44 -23 -43 -37 2 -14 -8 -23 -32 -32 -19 -6 -52
-32 -73 -56 -71 -81 -80 -184 -24 -276 l31 -49 -34 0 c-32 0 -35 -2 -35 -30
l0 -30 230 0 230 0 0 30 0 30 -135 0 c-88 0 -135 4 -135 10 0 6 6 23 14 39 11
21 36 35 113 65 54 22 101 42 105 45 4 3 1 16 -5 27 -12 22 -12 22 -117 -21
-93 -39 -106 -42 -124 -29 -27 18 -66 18 -94 -2 -22 -15 -22 -15 -22 39 0 62
25 108 79 144 44 30 54 29 68 -7 l11 -30 54 22 c29 12 54 22 56 23 7 5 -54
145 -63 144 -5 0 -30 -8 -55 -19z m-62 -377 c-5 -26 -38 -29 -38 -4 0 15 6 21
21 21 14 0 19 -5 17 -17z"/>
<path d="M1330 1445 c-433 -433 -454 -456 -437 -472 17 -17 39 4 474 439 396
396 455 459 444 472 -8 9 -16 16 -20 16 -3 0 -211 -205 -461 -455z"/>
<path d="M1043 1799 c-49 -23 -53 -32 -19 -54 22 -15 27 -15 55 -1 30 16 47
47 36 66 -9 14 -23 12 -72 -11z"/>
<path d="M1590 1185 l0 -35 55 0 55 0 0 -160 0 -160 50 0 50 0 0 160 0 160 50
0 c33 0 50 4 50 13 0 6 3 22 6 35 l6 22 -161 0 -161 0 0 -35z"/>
</g>
</svg>
